<svg width="1428" height="515" viewBox="0 0 1428 515" fill="none" xmlns="http://www.w3.org/2000/svg">
<path d="M61.616 84.568C58.4587 85.9333 54.7893 86.9147 50.608 87.512C46.4267 88.1093 42.544 88.408 38.96 88.408C27.3547 88.408 18.2667 85.3787 11.696 79.32C5.12533 73.2613 1.84 63.96 1.84 51.416C1.84 38.616 5.296 29.0587 12.208 22.744C19.12 16.344 28.848 13.144 41.392 13.144C47.3653 13.144 53.5947 13.9547 60.08 15.576C60.08 17.2827 59.9093 19.8427 59.568 23.256C59.2267 26.584 58.8853 28.9307 58.544 30.296H50.48C44.592 30.296 39.9413 30.424 36.528 30.68C33.2 30.8507 31.1947 31.2347 30.512 31.832C29.232 33.0267 28.2507 35.4587 27.568 39.128C26.8853 42.712 26.544 46.168 26.544 49.496C26.544 55.2987 27.2693 59.7787 28.72 62.936C30.1707 66.008 32.0053 68.056 34.224 69.08C36.3573 70.104 39.8987 70.616 44.848 70.616C48.7733 70.616 53.8933 70.2747 60.208 69.592L61.616 84.568ZM97.289 88.664C87.049 88.664 79.369 86.2747 74.249 81.496C69.2143 76.632 66.697 68.9947 66.697 58.584C66.697 52.8667 67.209 47.8747 68.233 43.608C69.3423 39.256 70.665 36.2267 72.201 34.52C74.1637 32.3013 77.7477 30.4667 82.953 29.016C88.2437 27.5653 93.193 26.84 97.801 26.84C108.809 26.84 116.66 29.1867 121.353 33.88C126.046 38.5733 128.393 46.0827 128.393 56.408C128.393 67.5013 125.876 75.6507 120.841 80.856C115.806 86.0613 107.956 88.664 97.289 88.664ZM97.673 73.688C101.001 73.688 103.177 72.536 104.201 70.232C105.225 67.8427 105.737 63.6613 105.737 57.688C105.737 53.5067 105.524 50.3067 105.097 48.088C104.67 45.784 103.86 44.12 102.665 43.096C101.556 41.9867 99.8063 41.432 97.417 41.432C94.0037 41.432 92.041 41.7307 91.529 42.328C90.8463 42.9253 90.2917 44.8027 89.865 47.96C89.4383 51.1173 89.225 54.4027 89.225 57.816C89.225 63.6187 89.7797 67.7147 90.889 70.104C92.0837 72.4933 94.345 73.688 97.673 73.688ZM228.78 32.216C230.145 34.264 230.828 42.2 230.828 56.024V87H208.94V58.2V51.288C208.94 48.1307 208.641 46.2533 208.044 45.656C207.361 44.9733 205.911 44.632 203.692 44.632L202.156 44.76C199.511 44.9307 196.993 45.528 194.604 46.552C194.689 48.344 194.732 51.5013 194.732 56.024V87H172.844V58.2V50.52C172.844 47.8747 172.545 46.2533 171.948 45.656C171.265 44.9733 169.815 44.632 167.596 44.632L166.06 44.76C163.671 44.8453 161.196 45.4 158.636 46.424V87H136.748V28.12H154.54L156.844 37.72C159.66 33.9653 162.903 31.2347 166.572 29.528C170.241 27.736 173.953 26.84 177.708 26.84C180.865 26.84 183.852 27.3093 186.668 28.248C189.569 29.1867 191.575 30.5093 192.684 32.216C193.196 32.984 193.623 34.392 193.964 36.44C196.695 33.112 199.809 30.68 203.308 29.144C206.807 27.608 210.305 26.84 213.804 26.84C216.961 26.84 219.948 27.3093 222.764 28.248C225.665 29.1867 227.671 30.5093 228.78 32.216ZM271.64 20.824C268.739 20.824 266.221 19.8427 264.088 17.88C262.04 15.9173 261.016 13.5707 261.016 10.84C261.016 8.10933 262.04 5.76266 264.088 3.8C266.221 1.83733 268.739 0.855995 271.64 0.855995C274.541 0.855995 277.016 1.83733 279.064 3.8C281.112 5.76266 282.136 8.10933 282.136 10.84C282.136 13.5707 281.112 15.9173 279.064 17.88C277.016 19.8427 274.541 20.824 271.64 20.824ZM260.632 28.12H282.52V87H260.632V28.12ZM350.333 31.832C351.101 32.7707 351.656 35.1173 351.997 38.872C352.424 42.6267 352.637 48.344 352.637 56.024V87H330.749V56.28V51.032C330.749 48.3013 330.536 46.5947 330.109 45.912C329.426 45.0587 327.848 44.632 325.373 44.632C324.178 44.632 323.282 44.6747 322.685 44.76C320.296 44.8453 317.821 45.4 315.261 46.424V87H293.373V28.12H311.165L313.597 37.976C319.741 30.552 327.08 26.84 335.613 26.84C338.685 26.84 341.544 27.2667 344.189 28.12C346.92 28.9733 348.968 30.2107 350.333 31.832ZM389.884 62.808C389.884 64.344 389.927 65.9653 390.012 67.672C390.097 69.2933 390.353 70.3173 390.78 70.744C391.377 71.3413 393.468 71.64 397.052 71.64L401.404 71.512C402.172 75.608 402.556 80.344 402.556 85.72C400.935 86.3173 398.545 86.872 395.388 87.384C392.316 87.896 389.372 88.152 386.556 88.152C380.668 88.152 376.103 86.872 372.86 84.312C369.703 81.6667 368.124 77.6133 368.124 72.152V40.664H358.524V29.016L368.124 28.12L373.884 14.04L389.884 13.144V28.12H403.452V40.664H389.884V62.808ZM445.71 71.64C447.843 71.64 451.811 71.4267 457.614 71C458.382 71 459.79 70.9147 461.838 70.744L463.758 83.928C457.187 87 448.654 88.536 438.158 88.536C428.345 88.536 420.793 86.0613 415.502 81.112C410.297 76.1627 407.694 68.696 407.694 58.712C407.694 53.592 408.334 48.6427 409.614 43.864C410.979 39.0853 412.515 35.7573 414.222 33.88C416.014 32.0027 419.342 30.3813 424.206 29.016C429.07 27.6507 433.891 26.968 438.67 26.968C446.35 26.968 452.11 28.3333 455.95 31.064C459.79 33.7947 462.307 37.592 463.502 42.456C464.697 47.2347 465.294 53.6773 465.294 61.784C459.491 62.1253 453.817 62.296 448.27 62.296H430.094C430.094 65.0267 430.649 67.0747 431.758 68.44C432.953 69.8053 434.617 70.7013 436.75 71.128C438.883 71.4693 441.87 71.64 445.71 71.64ZM431.374 42.2C430.862 42.456 430.478 43.5653 430.222 45.528C429.966 47.4907 429.795 49.7093 429.71 52.184H436.366C440.377 52.184 443.278 52.1413 445.07 52.056C445.07 47.96 444.473 45.0587 443.278 43.352C442.169 41.6453 440.206 40.792 437.39 40.792C435.086 40.792 433.081 41.2613 431.374 42.2ZM473.382 10.2L495.27 9.30399V87H473.382V10.2ZM517.515 20.824C514.614 20.824 512.096 19.8427 509.963 17.88C507.915 15.9173 506.891 13.5707 506.891 10.84C506.891 8.10933 507.915 5.76266 509.963 3.8C512.096 1.83733 514.614 0.855995 517.515 0.855995C520.416 0.855995 522.891 1.83733 524.939 3.8C526.987 5.76266 528.011 8.10933 528.011 10.84C528.011 13.5707 526.987 15.9173 524.939 17.88C522.891 19.8427 520.416 20.824 517.515 20.824ZM506.507 28.12H528.395V87H506.507V28.12ZM569.968 27.096C573.979 27.096 578.16 27.3947 582.512 27.992C586.864 28.504 591.941 29.2293 597.744 30.168V81.112C597.744 93.3147 593.691 102.787 585.584 109.528C584.56 110.381 582.256 111.107 578.672 111.704C575.088 112.301 571.035 112.6 566.512 112.6C556.699 112.6 548.933 111.32 543.216 108.76C543.131 106.883 543.259 104.408 543.6 101.336C544.027 98.264 544.453 95.832 544.88 94.04C551.024 94.9787 557.04 95.448 562.928 95.448C565.915 95.448 568.432 95.2773 570.48 94.936C572.613 94.68 573.936 94.2533 574.448 93.656C575.131 92.9733 575.643 90.4133 575.984 85.976C576.069 84.7813 576.112 83.032 576.112 80.728V77.528C573.979 80.6853 571.248 82.9467 567.92 84.312C564.592 85.6773 561.605 86.36 558.96 86.36C551.792 86.36 546.373 84.0133 542.704 79.32C539.035 74.6267 537.2 67.7573 537.2 58.712C537.2 52.7387 538.011 47.1493 539.632 41.944C541.339 36.6533 543.643 32.984 546.544 30.936C548.421 29.656 551.451 28.7173 555.632 28.12C559.899 27.4373 564.677 27.096 569.968 27.096ZM567.28 70.36C570.437 70.36 573.296 69.848 575.856 68.824V42.072C574.917 41.9013 573.509 41.7307 571.632 41.56C570.779 41.4747 569.499 41.432 567.792 41.432C565.147 41.432 563.483 41.688 562.8 42.2C561.861 42.8827 561.093 44.8027 560.496 47.96C559.984 51.032 559.728 54.2747 559.728 57.688C559.728 62.3813 560.24 65.6667 561.264 67.544C562.373 69.4213 564.379 70.36 567.28 70.36ZM643.835 71.64C645.968 71.64 649.936 71.4267 655.739 71C656.507 71 657.915 70.9147 659.963 70.744L661.883 83.928C655.312 87 646.779 88.536 636.283 88.536C626.47 88.536 618.918 86.0613 613.627 81.112C608.422 76.1627 605.819 68.696 605.819 58.712C605.819 53.592 606.459 48.6427 607.739 43.864C609.104 39.0853 610.64 35.7573 612.347 33.88C614.139 32.0027 617.467 30.3813 622.331 29.016C627.195 27.6507 632.016 26.968 636.795 26.968C644.475 26.968 650.235 28.3333 654.075 31.064C657.915 33.7947 660.432 37.592 661.627 42.456C662.822 47.2347 663.419 53.6773 663.419 61.784C657.616 62.1253 651.942 62.296 646.395 62.296H628.219C628.219 65.0267 628.774 67.0747 629.883 68.44C631.078 69.8053 632.742 70.7013 634.875 71.128C637.008 71.4693 639.995 71.64 643.835 71.64ZM629.499 42.2C628.987 42.456 628.603 43.5653 628.347 45.528C628.091 47.4907 627.92 49.7093 627.835 52.184H634.491C638.502 52.184 641.403 52.1413 643.195 52.056C643.195 47.96 642.598 45.0587 641.403 43.352C640.294 41.6453 638.331 40.792 635.515 40.792C633.211 40.792 631.206 41.2613 629.499 42.2ZM651.131 23.128L635.515 11.736L619.643 23.128L614.139 16.472L630.139 1.112H640.123L656.379 16.344L651.131 23.128ZM728.083 31.832C728.851 32.7707 729.406 35.1173 729.747 38.872C730.174 42.6267 730.387 48.344 730.387 56.024V87H708.499V56.28V51.032C708.499 48.3013 708.286 46.5947 707.859 45.912C707.176 45.0587 705.598 44.632 703.123 44.632C701.928 44.632 701.032 44.6747 700.435 44.76C698.046 44.8453 695.571 45.4 693.011 46.424V87H671.123V28.12H688.915L691.347 37.976C697.491 30.552 704.83 26.84 713.363 26.84C716.435 26.84 719.294 27.2667 721.939 28.12C724.67 28.9733 726.718 30.2107 728.083 31.832ZM790.034 85.208C783.122 87.512 775.399 88.664 766.866 88.664C757.309 88.664 750.141 86.2747 745.362 81.496C740.669 76.632 738.322 69.08 738.322 58.84C738.322 53.8053 739.005 48.856 740.37 43.992C741.735 39.0427 743.186 35.7147 744.722 34.008C746.514 32.0453 750.013 30.3813 755.218 29.016C760.509 27.6507 765.97 26.968 771.602 26.968C777.49 26.968 783.421 27.48 789.394 28.504C789.223 30.6373 788.925 33.1547 788.498 36.056C788.157 38.872 787.773 41.3893 787.346 43.608C782.055 43.2667 777.063 43.096 772.37 43.096C767.762 43.096 764.818 43.352 763.538 43.864C762.855 44.12 762.215 45.8693 761.618 49.112C761.106 52.3547 760.85 55.384 760.85 58.2C760.85 61.9547 761.362 64.856 762.386 66.904C763.495 68.8667 765.202 70.232 767.506 71C769.81 71.768 772.925 72.152 776.85 72.152C778.557 72.152 782.311 71.9813 788.114 71.64L790.034 85.208ZM808.765 20.824C805.864 20.824 803.346 19.8427 801.213 17.88C799.165 15.9173 798.141 13.5707 798.141 10.84C798.141 8.10933 799.165 5.76266 801.213 3.8C803.346 1.83733 805.864 0.855995 808.765 0.855995C811.666 0.855995 814.141 1.83733 816.189 3.8C818.237 5.76266 819.261 8.10933 819.261 10.84C819.261 13.5707 818.237 15.9173 816.189 17.88C814.141 19.8427 811.666 20.824 808.765 20.824ZM797.757 28.12H819.645V87H797.757V28.12ZM865.57 87L863.522 78.936C859.597 85.336 854.135 88.536 847.138 88.536C841.421 88.536 836.727 86.9573 833.058 83.8C829.474 80.5573 827.682 76.0347 827.682 70.232C827.682 66.648 828.706 63.5333 830.754 60.888C832.887 58.1573 835.789 56.2373 839.458 55.128C844.237 53.7627 851.618 52.9947 861.602 52.824C861.602 47.192 861.346 44.2053 860.834 43.864C860.407 43.5227 859.042 43.352 856.738 43.352C855.287 43.352 853.282 43.4373 850.722 43.608C846.626 43.7787 841.079 44.248 834.082 45.016C833.399 40.408 832.887 35.4587 832.546 30.168C837.069 29.2293 841.805 28.4613 846.754 27.864C851.703 27.1813 856.141 26.84 860.066 26.84C866.893 26.84 872.013 27.992 875.426 30.296C878.839 32.5147 881.058 35.4587 882.082 39.128C883.106 42.7973 883.575 47.448 883.49 53.08L883.362 71.896L883.746 87H865.57ZM854.562 74.2C856.781 74.2 859.127 73.7733 861.602 72.92V63.448H860.578C854.263 63.448 850.765 63.7893 850.082 64.472C849.655 64.8987 849.314 65.5387 849.058 66.392C848.887 67.2453 848.802 68.056 848.802 68.824C848.802 70.872 849.271 72.28 850.21 73.048C851.149 73.816 852.599 74.2 854.562 74.2ZM38.96 272.64C41.0933 272.64 45.0613 272.427 50.864 272C51.632 272 53.04 271.915 55.088 271.744L57.008 284.928C50.4373 288 41.904 289.536 31.408 289.536C21.5947 289.536 14.0427 287.061 8.752 282.112C3.54667 277.163 0.944 269.696 0.944 259.712C0.944 254.592 1.584 249.643 2.864 244.864C4.22933 240.085 5.76533 236.757 7.472 234.88C9.264 233.003 12.592 231.381 17.456 230.016C22.32 228.651 27.1413 227.968 31.92 227.968C39.6 227.968 45.36 229.333 49.2 232.064C53.04 234.795 55.5573 238.592 56.752 243.456C57.9467 248.235 58.544 254.677 58.544 262.784C52.7413 263.125 47.0667 263.296 41.52 263.296H23.344C23.344 266.027 23.8987 268.075 25.008 269.44C26.2027 270.805 27.8667 271.701 30 272.128C32.1333 272.469 35.12 272.64 38.96 272.64ZM24.624 243.2C24.112 243.456 23.728 244.565 23.472 246.528C23.216 248.491 23.0453 250.709 22.96 253.184H29.616C33.6267 253.184 36.528 253.141 38.32 253.056C38.32 248.96 37.7227 246.059 36.528 244.352C35.4187 242.645 33.456 241.792 30.64 241.792C28.336 241.792 26.3307 242.261 24.624 243.2ZM177.53 233.216C178.895 235.264 179.578 243.2 179.578 257.024V288H157.69V259.2V252.288C157.69 249.131 157.391 247.253 156.794 246.656C156.111 245.973 154.661 245.632 152.442 245.632L150.906 245.76C148.261 245.931 145.743 246.528 143.354 247.552C143.439 249.344 143.482 252.501 143.482 257.024V288H121.594V259.2V251.52C121.594 248.875 121.295 247.253 120.698 246.656C120.015 245.973 118.565 245.632 116.346 245.632L114.81 245.76C112.421 245.845 109.946 246.4 107.386 247.424V288H85.498V229.12H103.29L105.594 238.72C108.41 234.965 111.653 232.235 115.322 230.528C118.991 228.736 122.703 227.84 126.458 227.84C129.615 227.84 132.602 228.309 135.418 229.248C138.319 230.187 140.325 231.509 141.434 233.216C141.946 233.984 142.373 235.392 142.714 237.44C145.445 234.112 148.559 231.68 152.058 230.144C155.557 228.608 159.055 227.84 162.554 227.84C165.711 227.84 168.698 228.309 171.514 229.248C174.415 230.187 176.421 231.509 177.53 233.216ZM218.164 289.664C207.924 289.664 200.244 287.275 195.124 282.496C190.089 277.632 187.572 269.995 187.572 259.584C187.572 253.867 188.084 248.875 189.108 244.608C190.217 240.256 191.54 237.227 193.076 235.52C195.039 233.301 198.623 231.467 203.828 230.016C209.119 228.565 214.068 227.84 218.676 227.84C229.684 227.84 237.535 230.187 242.228 234.88C246.921 239.573 249.268 247.083 249.268 257.408C249.268 268.501 246.751 276.651 241.716 281.856C236.681 287.061 228.831 289.664 218.164 289.664ZM218.548 274.688C221.876 274.688 224.052 273.536 225.076 271.232C226.1 268.843 226.612 264.661 226.612 258.688C226.612 254.507 226.399 251.307 225.972 249.088C225.545 246.784 224.735 245.12 223.54 244.096C222.431 242.987 220.681 242.432 218.292 242.432C214.879 242.432 212.916 242.731 212.404 243.328C211.721 243.925 211.167 245.803 210.74 248.96C210.313 252.117 210.1 255.403 210.1 258.816C210.1 264.619 210.655 268.715 211.764 271.104C212.959 273.493 215.22 274.688 218.548 274.688ZM294.261 229.12H317.173L299.253 288H268.917L250.997 229.12H273.909L283.509 274.304H284.789L294.261 229.12ZM333.64 221.824C330.739 221.824 328.221 220.843 326.088 218.88C324.04 216.917 323.016 214.571 323.016 211.84C323.016 209.109 324.04 206.763 326.088 204.8C328.221 202.837 330.739 201.856 333.64 201.856C336.541 201.856 339.016 202.837 341.064 204.8C343.112 206.763 344.136 209.109 344.136 211.84C344.136 214.571 343.112 216.917 341.064 218.88C339.016 220.843 336.541 221.824 333.64 221.824ZM322.632 229.12H344.52V288H322.632V229.12ZM447.405 233.216C448.77 235.264 449.453 243.2 449.453 257.024V288H427.565V259.2V252.288C427.565 249.131 427.266 247.253 426.669 246.656C425.986 245.973 424.536 245.632 422.317 245.632L420.781 245.76C418.136 245.931 415.618 246.528 413.229 247.552C413.314 249.344 413.357 252.501 413.357 257.024V288H391.469V259.2V251.52C391.469 248.875 391.17 247.253 390.573 246.656C389.89 245.973 388.44 245.632 386.221 245.632L384.685 245.76C382.296 245.845 379.821 246.4 377.261 247.424V288H355.373V229.12H373.165L375.469 238.72C378.285 234.965 381.528 232.235 385.197 230.528C388.866 228.736 392.578 227.84 396.333 227.84C399.49 227.84 402.477 228.309 405.293 229.248C408.194 230.187 410.2 231.509 411.309 233.216C411.821 233.984 412.248 235.392 412.589 237.44C415.32 234.112 418.434 231.68 421.933 230.144C425.432 228.608 428.93 227.84 432.429 227.84C435.586 227.84 438.573 228.309 441.389 229.248C444.29 230.187 446.296 231.509 447.405 233.216ZM495.335 272.64C497.468 272.64 501.436 272.427 507.239 272C508.007 272 509.415 271.915 511.463 271.744L513.383 284.928C506.812 288 498.279 289.536 487.783 289.536C477.97 289.536 470.418 287.061 465.127 282.112C459.922 277.163 457.319 269.696 457.319 259.712C457.319 254.592 457.959 249.643 459.239 244.864C460.604 240.085 462.14 236.757 463.847 234.88C465.639 233.003 468.967 231.381 473.831 230.016C478.695 228.651 483.516 227.968 488.295 227.968C495.975 227.968 501.735 229.333 505.575 232.064C509.415 234.795 511.932 238.592 513.127 243.456C514.322 248.235 514.919 254.677 514.919 262.784C509.116 263.125 503.442 263.296 497.895 263.296H479.719C479.719 266.027 480.274 268.075 481.383 269.44C482.578 270.805 484.242 271.701 486.375 272.128C488.508 272.469 491.495 272.64 495.335 272.64ZM480.999 243.2C480.487 243.456 480.103 244.565 479.847 246.528C479.591 248.491 479.42 250.709 479.335 253.184H485.991C490.002 253.184 492.903 253.141 494.695 253.056C494.695 248.96 494.098 246.059 492.903 244.352C491.794 242.645 489.831 241.792 487.015 241.792C484.711 241.792 482.706 242.261 480.999 243.2ZM579.583 232.832C580.351 233.771 580.906 236.117 581.247 239.872C581.674 243.627 581.887 249.344 581.887 257.024V288H559.999V257.28V252.032C559.999 249.301 559.786 247.595 559.359 246.912C558.676 246.059 557.098 245.632 554.623 245.632C553.428 245.632 552.532 245.675 551.935 245.76C549.546 245.845 547.071 246.4 544.511 247.424V288H522.623V229.12H540.415L542.847 238.976C548.991 231.552 556.33 227.84 564.863 227.84C567.935 227.84 570.794 228.267 573.439 229.12C576.17 229.973 578.218 231.211 579.583 232.832ZM619.134 263.808C619.134 265.344 619.177 266.965 619.262 268.672C619.347 270.293 619.603 271.317 620.03 271.744C620.627 272.341 622.718 272.64 626.302 272.64L630.654 272.512C631.422 276.608 631.806 281.344 631.806 286.72C630.185 287.317 627.795 287.872 624.638 288.384C621.566 288.896 618.622 289.152 615.806 289.152C609.918 289.152 605.353 287.872 602.11 285.312C598.953 282.667 597.374 278.613 597.374 273.152V241.664H587.774V230.016L597.374 229.12L603.134 215.04L619.134 214.144V229.12H632.702V241.664H619.134V263.808ZM667.664 289.664C657.424 289.664 649.744 287.275 644.624 282.496C639.589 277.632 637.072 269.995 637.072 259.584C637.072 253.867 637.584 248.875 638.608 244.608C639.717 240.256 641.04 237.227 642.576 235.52C644.539 233.301 648.123 231.467 653.328 230.016C658.619 228.565 663.568 227.84 668.176 227.84C679.184 227.84 687.035 230.187 691.728 234.88C696.421 239.573 698.768 247.083 698.768 257.408C698.768 268.501 696.251 276.651 691.216 281.856C686.181 287.061 678.331 289.664 667.664 289.664ZM668.048 274.688C671.376 274.688 673.552 273.536 674.576 271.232C675.6 268.843 676.112 264.661 676.112 258.688C676.112 254.507 675.899 251.307 675.472 249.088C675.045 246.784 674.235 245.12 673.04 244.096C671.931 242.987 670.181 242.432 667.792 242.432C664.379 242.432 662.416 242.731 661.904 243.328C661.221 243.925 660.667 245.803 660.24 248.96C659.813 252.117 659.6 255.403 659.6 258.816C659.6 264.619 660.155 268.715 661.264 271.104C662.459 273.493 664.72 274.688 668.048 274.688ZM43.696 428.84C49.84 428.84 54.704 430.888 58.288 434.984C61.9573 438.995 63.792 446.035 63.792 456.104C63.792 463.613 63.0667 469.757 61.616 474.536C60.1653 479.229 58.5013 482.344 56.624 483.88C54.7467 485.416 51.4613 486.653 46.768 487.592C42.16 488.531 37.3813 489 32.432 489C30.9813 489 28.5493 488.915 25.136 488.744V506.92L3.248 507.816V430.12H21.168L23.344 439.208C25.5627 436.051 28.3787 433.533 31.792 431.656C35.2907 429.779 39.2587 428.84 43.696 428.84ZM38.576 473.384C39.5147 472.701 40.1973 470.781 40.624 467.624C41.0507 464.381 41.264 461.309 41.264 458.408C41.264 453.629 40.6667 450.088 39.472 447.784C38.2773 445.48 35.888 444.328 32.304 444.328C29.744 444.328 27.3547 444.584 25.136 445.096V473.512L28.72 473.896C29.8293 473.981 31.408 474.024 33.456 474.024C36.3573 474.024 38.064 473.811 38.576 473.384ZM107.445 489L105.397 480.936C101.472 487.336 96.0103 490.536 89.013 490.536C83.2957 490.536 78.6023 488.957 74.933 485.8C71.349 482.557 69.557 478.035 69.557 472.232C69.557 468.648 70.581 465.533 72.629 462.888C74.7623 460.157 77.6637 458.237 81.333 457.128C86.1117 455.763 93.493 454.995 103.477 454.824C103.477 449.192 103.221 446.205 102.709 445.864C102.282 445.523 100.917 445.352 98.613 445.352C97.1623 445.352 95.157 445.437 92.597 445.608C88.501 445.779 82.9543 446.248 75.957 447.016C75.2743 442.408 74.7623 437.459 74.421 432.168C78.9437 431.229 83.6797 430.461 88.629 429.864C93.5783 429.181 98.0157 428.84 101.941 428.84C108.768 428.84 113.888 429.992 117.301 432.296C120.714 434.515 122.933 437.459 123.957 441.128C124.981 444.797 125.45 449.448 125.365 455.08L125.237 473.896L125.621 489H107.445ZM96.437 476.2C98.6557 476.2 101.002 475.773 103.477 474.92V465.448H102.453C96.1383 465.448 92.6397 465.789 91.957 466.472C91.5303 466.899 91.189 467.539 90.933 468.392C90.7623 469.245 90.677 470.056 90.677 470.824C90.677 472.872 91.1463 474.28 92.085 475.048C93.0237 475.816 94.4743 476.2 96.437 476.2ZM171.728 428.84C172.837 428.84 173.989 428.968 175.184 429.224C176.464 429.48 177.403 429.779 178 430.12C178 431.997 177.787 435.112 177.36 439.464C176.933 443.731 176.549 446.76 176.208 448.552C175.355 448.467 173.776 448.424 171.472 448.424C166.096 448.424 161.317 448.723 157.136 449.32V489H135.248V430.12H153.552L156.112 439.592H156.24C158.715 436.349 161.36 433.747 164.176 431.784C166.992 429.821 169.509 428.84 171.728 428.84ZM214.945 489L212.897 480.936C208.972 487.336 203.51 490.536 196.513 490.536C190.796 490.536 186.102 488.957 182.433 485.8C178.849 482.557 177.057 478.035 177.057 472.232C177.057 468.648 178.081 465.533 180.129 462.888C182.262 460.157 185.164 458.237 188.833 457.128C193.612 455.763 200.993 454.995 210.977 454.824C210.977 449.192 210.721 446.205 210.209 445.864C209.782 445.523 208.417 445.352 206.113 445.352C204.662 445.352 202.657 445.437 200.097 445.608C196.001 445.779 190.454 446.248 183.457 447.016C182.774 442.408 182.262 437.459 181.921 432.168C186.444 431.229 191.18 430.461 196.129 429.864C201.078 429.181 205.516 428.84 209.441 428.84C216.268 428.84 221.388 429.992 224.801 432.296C228.214 434.515 230.433 437.459 231.457 441.128C232.481 444.797 232.95 449.448 232.865 455.08L232.737 473.896L233.121 489H214.945ZM203.937 476.2C206.156 476.2 208.502 475.773 210.977 474.92V465.448H209.953C203.638 465.448 200.14 465.789 199.457 466.472C199.03 466.899 198.689 467.539 198.433 468.392C198.262 469.245 198.177 470.056 198.177 470.824C198.177 472.872 198.646 474.28 199.585 475.048C200.524 475.816 201.974 476.2 203.937 476.2ZM297.07 489L295.022 480.936C291.097 487.336 285.635 490.536 278.638 490.536C272.921 490.536 268.227 488.957 264.558 485.8C260.974 482.557 259.182 478.035 259.182 472.232C259.182 468.648 260.206 465.533 262.254 462.888C264.387 460.157 267.289 458.237 270.958 457.128C275.737 455.763 283.118 454.995 293.102 454.824C293.102 449.192 292.846 446.205 292.334 445.864C291.907 445.523 290.542 445.352 288.238 445.352C286.787 445.352 284.782 445.437 282.222 445.608C278.126 445.779 272.579 446.248 265.582 447.016C264.899 442.408 264.387 437.459 264.046 432.168C268.569 431.229 273.305 430.461 278.254 429.864C283.203 429.181 287.641 428.84 291.566 428.84C298.393 428.84 303.513 429.992 306.926 432.296C310.339 434.515 312.558 437.459 313.582 441.128C314.606 444.797 315.075 449.448 314.99 455.08L314.862 473.896L315.246 489H297.07ZM286.062 476.2C288.281 476.2 290.627 475.773 293.102 474.92V465.448H292.078C285.763 465.448 282.265 465.789 281.582 466.472C281.155 466.899 280.814 467.539 280.558 468.392C280.387 469.245 280.302 470.056 280.302 470.824C280.302 472.872 280.771 474.28 281.71 475.048C282.649 475.816 284.099 476.2 286.062 476.2ZM325.257 412.2L347.145 411.304V489H325.257V412.2ZM393.07 489L391.022 480.936C387.097 487.336 381.635 490.536 374.638 490.536C368.921 490.536 364.227 488.957 360.558 485.8C356.974 482.557 355.182 478.035 355.182 472.232C355.182 468.648 356.206 465.533 358.254 462.888C360.387 460.157 363.289 458.237 366.958 457.128C371.737 455.763 379.118 454.995 389.102 454.824C389.102 449.192 388.846 446.205 388.334 445.864C387.907 445.523 386.542 445.352 384.238 445.352C382.787 445.352 380.782 445.437 378.222 445.608C374.126 445.779 368.579 446.248 361.582 447.016C360.899 442.408 360.387 437.459 360.046 432.168C364.569 431.229 369.305 430.461 374.254 429.864C379.203 429.181 383.641 428.84 387.566 428.84C394.393 428.84 399.513 429.992 402.926 432.296C406.339 434.515 408.558 437.459 409.582 441.128C410.606 444.797 411.075 449.448 410.99 455.08L410.862 473.896L411.246 489H393.07ZM382.062 476.2C384.281 476.2 386.627 475.773 389.102 474.92V465.448H388.078C381.763 465.448 378.265 465.789 377.582 466.472C377.155 466.899 376.814 467.539 376.558 468.392C376.387 469.245 376.302 470.056 376.302 470.824C376.302 472.872 376.771 474.28 377.71 475.048C378.649 475.816 380.099 476.2 382.062 476.2ZM458.761 430.12H481.673L463.753 489H433.417L415.497 430.12H438.409L448.009 475.304H449.289L458.761 430.12ZM517.57 489L515.522 480.936C511.597 487.336 506.135 490.536 499.138 490.536C493.421 490.536 488.727 488.957 485.058 485.8C481.474 482.557 479.682 478.035 479.682 472.232C479.682 468.648 480.706 465.533 482.754 462.888C484.887 460.157 487.789 458.237 491.458 457.128C496.237 455.763 503.618 454.995 513.602 454.824C513.602 449.192 513.346 446.205 512.834 445.864C512.407 445.523 511.042 445.352 508.738 445.352C507.287 445.352 505.282 445.437 502.722 445.608C498.626 445.779 493.079 446.248 486.082 447.016C485.399 442.408 484.887 437.459 484.546 432.168C489.069 431.229 493.805 430.461 498.754 429.864C503.703 429.181 508.141 428.84 512.066 428.84C518.893 428.84 524.013 429.992 527.426 432.296C530.839 434.515 533.058 437.459 534.082 441.128C535.106 444.797 535.575 449.448 535.49 455.08L535.362 473.896L535.746 489H517.57ZM506.562 476.2C508.781 476.2 511.127 475.773 513.602 474.92V465.448H512.578C506.263 465.448 502.765 465.789 502.082 466.472C501.655 466.899 501.314 467.539 501.058 468.392C500.887 469.245 500.802 470.056 500.802 470.824C500.802 472.872 501.271 474.28 502.21 475.048C503.149 475.816 504.599 476.2 506.562 476.2ZM602.333 433.832C603.101 434.771 603.656 437.117 603.997 440.872C604.424 444.627 604.637 450.344 604.637 458.024V489H582.749V458.28V453.032C582.749 450.301 582.536 448.595 582.109 447.912C581.426 447.059 579.848 446.632 577.373 446.632C576.178 446.632 575.282 446.675 574.685 446.76C572.296 446.845 569.821 447.4 567.261 448.424V489H545.373V430.12H563.165L565.597 439.976C571.741 432.552 579.08 428.84 587.613 428.84C590.685 428.84 593.544 429.267 596.189 430.12C598.92 430.973 600.968 432.211 602.333 433.832ZM664.284 487.208C657.372 489.512 649.649 490.664 641.116 490.664C631.559 490.664 624.391 488.275 619.612 483.496C614.919 478.632 612.572 471.08 612.572 460.84C612.572 455.805 613.255 450.856 614.62 445.992C615.985 441.043 617.436 437.715 618.972 436.008C620.764 434.045 624.263 432.381 629.468 431.016C634.759 429.651 640.22 428.968 645.852 428.968C651.74 428.968 657.671 429.48 663.644 430.504C663.473 432.637 663.175 435.155 662.748 438.056C662.407 440.872 662.023 443.389 661.596 445.608C656.305 445.267 651.313 445.096 646.62 445.096C642.012 445.096 639.068 445.352 637.788 445.864C637.105 446.12 636.465 447.869 635.868 451.112C635.356 454.355 635.1 457.384 635.1 460.2C635.1 463.955 635.612 466.856 636.636 468.904C637.745 470.867 639.452 472.232 641.756 473C644.06 473.768 647.175 474.152 651.1 474.152C652.807 474.152 656.561 473.981 662.364 473.64L664.284 487.208ZM706.695 489L704.647 480.936C700.722 487.336 695.26 490.536 688.263 490.536C682.546 490.536 677.852 488.957 674.183 485.8C670.599 482.557 668.807 478.035 668.807 472.232C668.807 468.648 669.831 465.533 671.879 462.888C674.012 460.157 676.914 458.237 680.583 457.128C685.362 455.763 692.743 454.995 702.727 454.824C702.727 449.192 702.471 446.205 701.959 445.864C701.532 445.523 700.167 445.352 697.863 445.352C696.412 445.352 694.407 445.437 691.847 445.608C687.751 445.779 682.204 446.248 675.207 447.016C674.524 442.408 674.012 437.459 673.671 432.168C678.194 431.229 682.93 430.461 687.879 429.864C692.828 429.181 697.266 428.84 701.191 428.84C708.018 428.84 713.138 429.992 716.551 432.296C719.964 434.515 722.183 437.459 723.207 441.128C724.231 444.797 724.7 449.448 724.615 455.08L724.487 473.896L724.871 489H706.695ZM695.687 476.2C697.906 476.2 700.252 475.773 702.727 474.92V465.448H701.703C695.388 465.448 691.89 465.789 691.207 466.472C690.78 466.899 690.439 467.539 690.183 468.392C690.012 469.245 689.927 470.056 689.927 470.824C689.927 472.872 690.396 474.28 691.335 475.048C692.274 475.816 693.724 476.2 695.687 476.2ZM770.978 428.84C772.087 428.84 773.239 428.968 774.434 429.224C775.714 429.48 776.653 429.779 777.25 430.12C777.25 431.997 777.037 435.112 776.61 439.464C776.183 443.731 775.799 446.76 775.458 448.552C774.605 448.467 773.026 448.424 770.722 448.424C765.346 448.424 760.567 448.723 756.386 449.32V489H734.498V430.12H752.802L755.362 439.592H755.49C757.965 436.349 760.61 433.747 763.426 431.784C766.242 429.821 768.759 428.84 770.978 428.84ZM849.864 469.032C849.864 476.627 847.432 482.088 842.568 485.416C837.789 488.744 830.963 490.408 822.088 490.408C815.859 490.408 808.691 489.512 800.584 487.72C800.755 486.013 801.139 483.581 801.736 480.424C802.419 477.181 802.973 474.707 803.4 473C806.472 473.512 809.885 473.939 813.64 474.28C817.395 474.536 820.595 474.664 823.24 474.664C825.544 474.664 826.952 474.536 827.464 474.28C827.549 474.195 827.635 473.981 827.72 473.64C827.891 473.213 827.976 472.787 827.976 472.36C827.976 470.653 826.909 469.501 824.776 468.904C824.093 468.733 821.491 468.008 816.968 466.728C812.445 465.448 808.733 463.144 805.832 459.816C803.016 456.403 801.608 452.179 801.608 447.144C801.608 444.499 802.205 441.555 803.4 438.312C804.595 435.069 805.875 433.021 807.24 432.168C808.264 431.485 810.739 430.803 814.664 430.12C818.589 429.352 822.216 428.968 825.544 428.968C832.627 428.968 839.752 429.48 846.92 430.504C846.92 432.04 846.707 434.643 846.28 438.312C845.853 441.896 845.469 444.157 845.128 445.096C837.875 444.157 832.029 443.688 827.592 443.688C825.288 443.688 823.795 443.816 823.112 444.072C822.941 444.157 822.771 444.413 822.6 444.84C822.429 445.181 822.344 445.651 822.344 446.248C822.344 447.443 822.728 448.296 823.496 448.808C824.264 449.405 826.269 450.131 829.512 450.984C833.352 452.093 836.637 453.245 839.368 454.44C842.184 455.635 844.616 457.427 846.664 459.816C848.797 462.205 849.864 465.277 849.864 469.032ZM892.835 473.64C894.968 473.64 898.936 473.427 904.739 473C905.507 473 906.915 472.915 908.963 472.744L910.883 485.928C904.312 489 895.779 490.536 885.283 490.536C875.47 490.536 867.918 488.061 862.627 483.112C857.422 478.163 854.819 470.696 854.819 460.712C854.819 455.592 855.459 450.643 856.739 445.864C858.104 441.085 859.64 437.757 861.347 435.88C863.139 434.003 866.467 432.381 871.331 431.016C876.195 429.651 881.016 428.968 885.795 428.968C893.475 428.968 899.235 430.333 903.075 433.064C906.915 435.795 909.432 439.592 910.627 444.456C911.822 449.235 912.419 455.677 912.419 463.784C906.616 464.125 900.942 464.296 895.395 464.296H877.219C877.219 467.027 877.774 469.075 878.883 470.44C880.078 471.805 881.742 472.701 883.875 473.128C886.008 473.469 888.995 473.64 892.835 473.64ZM878.499 444.2C877.987 444.456 877.603 445.565 877.347 447.528C877.091 449.491 876.92 451.709 876.835 454.184H883.491C887.502 454.184 890.403 454.141 892.195 454.056C892.195 449.96 891.598 447.059 890.403 445.352C889.294 443.645 887.331 442.792 884.515 442.792C882.211 442.792 880.206 443.261 878.499 444.2ZM979.003 430.12V489H961.211L958.779 479.144C952.635 486.568 945.296 490.28 936.763 490.28C933.691 490.28 930.79 489.853 928.059 489C925.414 488.147 923.408 486.909 922.043 485.288C921.275 484.349 920.678 482.003 920.251 478.248C919.91 474.493 919.739 468.776 919.739 461.096V430.12H941.627V460.84C941.627 462.547 941.67 464.552 941.755 466.856C941.84 469.16 942.096 470.611 942.523 471.208C943.12 472.061 944.827 472.488 947.643 472.488L949.691 472.36C952.08 472.275 954.555 471.72 957.115 470.696V430.12H979.003ZM1065.71 433.832C1066.48 434.771 1067.03 437.117 1067.37 440.872C1067.8 444.627 1068.01 450.344 1068.01 458.024V489H1046.12V458.28V453.032C1046.12 450.301 1045.91 448.595 1045.48 447.912C1044.8 447.059 1043.22 446.632 1040.75 446.632C1039.55 446.632 1038.66 446.675 1038.06 446.76C1035.67 446.845 1033.2 447.4 1030.64 448.424V489H1008.75V430.12H1026.54L1028.97 439.976C1035.12 432.552 1042.45 428.84 1050.99 428.84C1054.06 428.84 1056.92 429.267 1059.56 430.12C1062.29 430.973 1064.34 432.211 1065.71 433.832ZM1113.84 473.64C1115.97 473.64 1119.94 473.427 1125.74 473C1126.51 473 1127.92 472.915 1129.96 472.744L1131.88 485.928C1125.31 489 1116.78 490.536 1106.28 490.536C1096.47 490.536 1088.92 488.061 1083.63 483.112C1078.42 478.163 1075.82 470.696 1075.82 460.712C1075.82 455.592 1076.46 450.643 1077.74 445.864C1079.1 441.085 1080.64 437.757 1082.35 435.88C1084.14 434.003 1087.47 432.381 1092.33 431.016C1097.2 429.651 1102.02 428.968 1106.8 428.968C1114.48 428.968 1120.24 430.333 1124.08 433.064C1127.92 435.795 1130.43 439.592 1131.63 444.456C1132.82 449.235 1133.42 455.677 1133.42 463.784C1127.62 464.125 1121.94 464.296 1116.4 464.296H1098.22C1098.22 467.027 1098.77 469.075 1099.88 470.44C1101.08 471.805 1102.74 472.701 1104.88 473.128C1107.01 473.469 1110 473.64 1113.84 473.64ZM1099.5 444.2C1098.99 444.456 1098.6 445.565 1098.35 447.528C1098.09 449.491 1097.92 451.709 1097.84 454.184H1104.49C1108.5 454.184 1111.4 454.141 1113.2 454.056C1113.2 449.96 1112.6 447.059 1111.4 445.352C1110.29 443.645 1108.33 442.792 1105.52 442.792C1103.21 442.792 1101.21 443.261 1099.5 444.2ZM1171.84 429.096C1175.85 429.096 1180.04 429.395 1184.39 429.992C1188.74 430.504 1193.82 431.229 1199.62 432.168V483.112C1199.62 495.315 1195.57 504.787 1187.46 511.528C1186.44 512.381 1184.13 513.107 1180.55 513.704C1176.96 514.301 1172.91 514.6 1168.39 514.6C1158.57 514.6 1150.81 513.32 1145.09 510.76C1145.01 508.883 1145.13 506.408 1145.48 503.336C1145.9 500.264 1146.33 497.832 1146.76 496.04C1152.9 496.979 1158.92 497.448 1164.8 497.448C1167.79 497.448 1170.31 497.277 1172.36 496.936C1174.49 496.68 1175.81 496.253 1176.32 495.656C1177.01 494.973 1177.52 492.413 1177.86 487.976C1177.94 486.781 1177.99 485.032 1177.99 482.728V479.528C1175.85 482.685 1173.12 484.947 1169.8 486.312C1166.47 487.677 1163.48 488.36 1160.84 488.36C1153.67 488.36 1148.25 486.013 1144.58 481.32C1140.91 476.627 1139.08 469.757 1139.08 460.712C1139.08 454.739 1139.89 449.149 1141.51 443.944C1143.21 438.653 1145.52 434.984 1148.42 432.936C1150.3 431.656 1153.33 430.717 1157.51 430.12C1161.77 429.437 1166.55 429.096 1171.84 429.096ZM1169.16 472.36C1172.31 472.36 1175.17 471.848 1177.73 470.824V444.072C1176.79 443.901 1175.38 443.731 1173.51 443.56C1172.65 443.475 1171.37 443.432 1169.67 443.432C1167.02 443.432 1165.36 443.688 1164.68 444.2C1163.74 444.883 1162.97 446.803 1162.37 449.96C1161.86 453.032 1161.6 456.275 1161.6 459.688C1161.6 464.381 1162.12 467.667 1163.14 469.544C1164.25 471.421 1166.25 472.36 1169.16 472.36ZM1238.41 490.664C1228.17 490.664 1220.49 488.275 1215.37 483.496C1210.34 478.632 1207.82 470.995 1207.82 460.584C1207.82 454.867 1208.33 449.875 1209.36 445.608C1210.47 441.256 1211.79 438.227 1213.33 436.52C1215.29 434.301 1218.87 432.467 1224.08 431.016C1229.37 429.565 1234.32 428.84 1238.93 428.84C1249.93 428.84 1257.78 431.187 1262.48 435.88C1267.17 440.573 1269.52 448.083 1269.52 458.408C1269.52 469.501 1267 477.651 1261.97 482.856C1256.93 488.061 1249.08 490.664 1238.41 490.664ZM1238.8 475.688C1242.13 475.688 1244.3 474.536 1245.33 472.232C1246.35 469.843 1246.86 465.661 1246.86 459.688C1246.86 455.507 1246.65 452.307 1246.22 450.088C1245.8 447.784 1244.98 446.12 1243.79 445.096C1242.68 443.987 1240.93 443.432 1238.54 443.432C1235.13 443.432 1233.17 443.731 1232.65 444.328C1231.97 444.925 1231.42 446.803 1230.99 449.96C1230.56 453.117 1230.35 456.403 1230.35 459.816C1230.35 465.619 1230.9 469.715 1232.01 472.104C1233.21 474.493 1235.47 475.688 1238.8 475.688ZM1228.69 418.472C1230.65 416.339 1233.64 413.693 1237.65 410.536C1241.66 407.379 1245.67 404.435 1249.68 401.704L1256.46 411.688C1253.73 413.565 1250.1 415.912 1245.58 418.728C1241.06 421.544 1237.13 423.933 1233.81 425.896L1228.69 418.472ZM1327.41 487.208C1320.5 489.512 1312.77 490.664 1304.24 490.664C1294.68 490.664 1287.52 488.275 1282.74 483.496C1278.04 478.632 1275.7 471.08 1275.7 460.84C1275.7 455.805 1276.38 450.856 1277.75 445.992C1279.11 441.043 1280.56 437.715 1282.1 436.008C1283.89 434.045 1287.39 432.381 1292.59 431.016C1297.88 429.651 1303.35 428.968 1308.98 428.968C1314.87 428.968 1320.8 429.48 1326.77 430.504C1326.6 432.637 1326.3 435.155 1325.87 438.056C1325.53 440.872 1325.15 443.389 1324.72 445.608C1319.43 445.267 1314.44 445.096 1309.75 445.096C1305.14 445.096 1302.19 445.352 1300.91 445.864C1300.23 446.12 1299.59 447.869 1298.99 451.112C1298.48 454.355 1298.23 457.384 1298.23 460.2C1298.23 463.955 1298.74 466.856 1299.76 468.904C1300.87 470.867 1302.58 472.232 1304.88 473C1307.19 473.768 1310.3 474.152 1314.23 474.152C1315.93 474.152 1319.69 473.981 1325.49 473.64L1327.41 487.208ZM1346.14 422.824C1343.24 422.824 1340.72 421.843 1338.59 419.88C1336.54 417.917 1335.52 415.571 1335.52 412.84C1335.52 410.109 1336.54 407.763 1338.59 405.8C1340.72 403.837 1343.24 402.856 1346.14 402.856C1349.04 402.856 1351.52 403.837 1353.56 405.8C1355.61 407.763 1356.64 410.109 1356.64 412.84C1356.64 415.571 1355.61 417.917 1353.56 419.88C1351.52 421.843 1349.04 422.824 1346.14 422.824ZM1335.13 430.12H1357.02V489H1335.13V430.12ZM1396.29 490.664C1386.05 490.664 1378.37 488.275 1373.25 483.496C1368.21 478.632 1365.7 470.995 1365.7 460.584C1365.7 454.867 1366.21 449.875 1367.23 445.608C1368.34 441.256 1369.67 438.227 1371.2 436.52C1373.16 434.301 1376.75 432.467 1381.95 431.016C1387.24 429.565 1392.19 428.84 1396.8 428.84C1407.81 428.84 1415.66 431.187 1420.35 435.88C1425.05 440.573 1427.39 448.083 1427.39 458.408C1427.39 469.501 1424.88 477.651 1419.84 482.856C1414.81 488.061 1406.96 490.664 1396.29 490.664ZM1396.67 475.688C1400 475.688 1402.18 474.536 1403.2 472.232C1404.23 469.843 1404.74 465.661 1404.74 459.688C1404.74 455.507 1404.52 452.307 1404.1 450.088C1403.67 447.784 1402.86 446.12 1401.67 445.096C1400.56 443.987 1398.81 443.432 1396.42 443.432C1393 443.432 1391.04 443.731 1390.53 444.328C1389.85 444.925 1389.29 446.803 1388.87 449.96C1388.44 453.117 1388.23 456.403 1388.23 459.816C1388.23 465.619 1388.78 469.715 1389.89 472.104C1391.08 474.493 1393.35 475.688 1396.67 475.688Z" fill="white"/>
</svg>
